<?xml version="1.0" encoding="UTF-8" standalone="no"?>
<svg
   xmlns:dc="http://purl.org/dc/elements/1.1/"
   xmlns:cc="http://creativecommons.org/ns#"
   xmlns:rdf="http://www.w3.org/1999/02/22-rdf-syntax-ns#"
   xmlns:svg="http://www.w3.org/2000/svg"
   xmlns="http://www.w3.org/2000/svg"
   xmlns:sodipodi="http://sodipodi.sourceforge.net/DTD/sodipodi-0.dtd"
   xmlns:inkscape="http://www.inkscape.org/namespaces/inkscape"
   width="28.573336mm"
   height="22.302048mm"
   viewBox="0 0 28.573336 22.302047"
   version="1.1"
   id="svg1075"
   sodipodi:docname="event.svg"
   inkscape:version="1.0.1 (3bc2e813f5, 2020-09-07)">
  <defs
     id="defs1069" />
  <sodipodi:namedview
     id="base"
     pagecolor="#ffffff"
     bordercolor="#666666"
     borderopacity="1.0"
     inkscape:pageopacity="0.0"
     inkscape:pageshadow="2"
     inkscape:zoom="0.98994949"
     inkscape:cx="-293.58716"
     inkscape:cy="-263.96294"
     inkscape:document-units="mm"
     inkscape:current-layer="g1681"
     inkscape:document-rotation="0"
     showgrid="false"
     inkscape:window-width="1920"
     inkscape:window-height="1017"
     inkscape:window-x="-8"
     inkscape:window-y="-8"
     inkscape:window-maximized="1" />
  <metadata
     id="metadata1072">
    <rdf:RDF>
      <cc:Work
         rdf:about="">
        <dc:format>image/svg+xml</dc:format>
        <dc:type
           rdf:resource="http://purl.org/dc/dcmitype/StillImage" />
        <dc:title></dc:title>
      </cc:Work>
    </rdf:RDF>
  </metadata>
  <g
     inkscape:label="Capa 1"
     inkscape:groupmode="layer"
     id="layer1"
     transform="translate(-139.47573,-548.56452)">
    <g
       id="g1067"
       transform="matrix(0.26458333,0,0,0.26458333,310.65091,163.78484)">
      <g
         id="g1677">
        <g
           id="g1681"
           transform="matrix(0.4985532,0,0,1.0387072,-383.50352,3.3673297)">
          <path
             class="cls-2"
             d="m -474.16765,1445.1985 h -14.7226 a 5.8168317,2.7919322 0 0 1 -5.79677,-2.792 v -7.0568 a 5.8168317,2.7919322 0 0 1 5.79677,-2.792 h 14.7226 a 5.8168317,2.7919322 0 0 1 5.81683,2.792 v 7.0568 a 5.8168317,2.7919322 0 0 1 -5.81683,2.792 z m -12.49616,-3.851 h 10.30984 v -4.9388 h -10.28978 z"
             id="path22"
             style="fill:#3cb371;fill-opacity:1;stroke-width:1.38963" />
          <path
             class="cls-2"
             d="m -432.94838,1445.1985 h -14.70254 a 5.8168317,2.7919322 0 0 1 -5.81683,-2.792 v -7.0568 a 5.8168317,2.7919322 0 0 1 5.81683,-2.792 h 14.70254 a 5.8168317,2.7919322 0 0 1 5.81684,2.792 v 7.0568 a 5.8168317,2.7919322 0 0 1 -5.81684,2.792 z m -12.49615,-3.851 h 10.28977 v -4.9388 h -10.28977 z"
             id="path24"
             style="fill:#3cb371;fill-opacity:1;stroke-width:1.38963" />
          <path
             class="cls-2"
             d="m -474.16765,1464.4532 h -14.7226 a 5.8168317,2.7919322 0 0 1 -5.79677,-2.792 v -7.0664 a 5.8168317,2.7919322 0 0 1 5.79677,-2.7824 h 14.7226 a 5.8168317,2.7919322 0 0 1 5.81683,2.7824 v 7.0664 a 5.8168317,2.7919322 0 0 1 -5.81683,2.792 z m -12.49616,-3.851 h 10.30984 v -4.9388 h -10.28978 z"
             id="path26"
             style="fill:#3cb371;fill-opacity:1;stroke-width:1.38963" />
          <path
             class="cls-2"
             d="m -432.94838,1464.4532 h -14.70254 a 5.8168317,2.7919322 0 0 1 -5.81683,-2.792 v -7.0664 a 5.8168317,2.7919322 0 0 1 5.81683,-2.7824 h 14.70254 a 5.8168317,2.7919322 0 0 1 5.81684,2.7824 v 7.0664 a 5.8168317,2.7919322 0 0 1 -5.81684,2.792 z m -12.49615,-3.851 h 10.28977 v -4.9388 h -10.28977 z"
             id="path28"
             style="fill:#3cb371;fill-opacity:1;stroke-width:1.38963" />
          <path
             class="cls-2"
             d="m -402.98166,1445.8531 a 4.011608,1.9254705 0 0 1 -2.64766,-0.4717 l -11.21245,-4.7271 a 4.011608,1.9254705 0 1 1 5.29532,-2.8882 l 8.14357,3.4274 16.80864,-9.5311 a 4.011608,1.9254705 0 0 1 6.01741,2.4839 l -19.4563,11.0329 a 4.011608,1.9254705 0 0 1 -2.74795,0.6739 z"
             id="path30"
             style="fill:#3cb371;fill-opacity:1;stroke-width:1.38963" />
          <path
             class="cls-2"
             d="m -351.47262,1445.1985 h -14.7226 a 5.8168317,2.7919322 0 0 1 -5.79677,-2.792 v -7.0568 a 5.8168317,2.7919322 0 0 1 5.79677,-2.792 h 14.7226 a 5.8168317,2.7919322 0 0 1 5.79678,2.792 v 7.0568 a 5.8168317,2.7919322 0 0 1 -5.79678,2.792 z m -12.51621,-3.851 h 10.30983 v -4.9388 h -10.34995 z"
             id="path32"
             style="fill:#3cb371;fill-opacity:1;stroke-width:1.38963" />
          <path
             class="cls-2"
             d="m -392.69189,1464.4532 h -14.7226 a 5.8168317,2.7919322 0 0 1 -5.79677,-2.792 v -7.0664 a 5.8168317,2.7919322 0 0 1 5.79677,-2.7824 h 14.7226 a 5.8168317,2.7919322 0 0 1 5.79677,2.7824 v 7.0664 a 5.8168317,2.7919322 0 0 1 -5.79677,2.792 z m -12.51622,-3.851 h 10.30984 v -4.9388 h -10.30984 z"
             id="path34"
             style="fill:#3cb371;fill-opacity:1;stroke-width:1.38963" />
          <path
             class="cls-2"
             d="m -420.19146,1416.6341 a 4.011608,1.9254705 0 0 0 4.01161,-1.9255 v -6.5466 h 27.13852 a 4.011608,1.9254705 0 1 0 0,-3.8509 h -27.13852 v -5.5357 a 4.01161,1.9254715 0 0 0 -8.02322,0 v 15.9236 a 4.011608,1.9254705 0 0 0 4.01161,1.9351 z"
             id="path36"
             style="fill:#3cb371;fill-opacity:1;stroke-width:1.38963" />
          <path
             class="cls-2"
             d="m -468.02989,1406.304 v 8.4046 a 4.01161,1.9254715 0 0 0 8.02322,0 v -6.5466 h 27.17864 a 4.011608,1.9254705 0 0 0 0,-3.8509 h -27.17864 v -5.5357 a 4.01161,1.9254715 0 0 0 -8.02322,0 v 7.3745 c 0,0 0,0 0,0.067 0,0.067 0,0.067 0,0.087 z"
             id="path38"
             style="fill:#3cb371;fill-opacity:1;stroke-width:1.38963" />
          <path
             class="cls-2"
             d="m -312.1388,1455.8367 a 4.011608,1.9254705 0 0 0 0.30087,-0.4718 0.82237965,0.39472144 0 0 0 0,-0.1059 3.6104472,1.7329234 0 0 0 0,-0.2118 v -44.0836 c 0,-2.3395 -3.28952,-4.4767 -8.6049,-5.632 l -0.22064,-0.058 v 0 0 h -0.10029 a 20.519375,9.8487814 0 0 0 -8.54472,-0.8664 h -42.90415 v -5.5358 a 4.01161,1.9254715 0 0 0 -8.02322,0 v 15.9237 a 4.01161,1.9254715 0 0 0 8.02322,0 v -6.5466 h 42.80386 a 12.596449,6.0459772 0 0 1 5.43573,0.568 6.1778764,2.9652245 0 0 1 4.17207,2.4357 v 9.6274 h -200.68069 v -9.6274 a 6.2581085,3.0037339 0 0 1 4.29242,-2.455 12.415927,5.9593311 0 0 1 5.29532,-0.5487 h 34.86087 a 4.0116695,1.9255 0 1 0 0,-3.851 h -34.82075 a 20.358911,9.7717626 0 0 0 -8.64502,0.8954 14.040628,6.7391466 0 0 0 -8.94589,5.9497 v 64.821 a 4.011608,1.9254705 0 0 0 4.01161,1.9254 h 169.83143 a 3.510157,1.6847866 0 0 0 0.80232,0 h 0.20058 a 4.9342779,2.3683287 0 0 0 0.58168,-0.087 l 0.28082,-0.077 a 2.6476613,1.2708105 0 0 0 0.40116,-0.1156 l 0.30087,-0.1059 0.32093,-0.1444 h 0.10029 l 38.83236,-20.9491 v 0 a 4.974394,2.3875834 0 0 0 0.52151,-0.3851 z m -44.26809,18.2342 h -164.07477 v -49.4268 h 200.5804 v 28.468 h -34.70041 a 4.011608,1.9254705 0 0 0 -4.01161,1.9255 v 13.2858 a 4.01161,1.9254715 0 1 0 8.02322,0 v -11.3603 h 25.87487 z"
             id="path40"
             style="fill:#3cb371;fill-opacity:1;stroke-width:1.38963" />
        </g>
      </g>
    </g>
  </g>
</svg>
