<?xml version="1.0" encoding="UTF-8" standalone="no"?>
<svg
   xmlns:dc="http://purl.org/dc/elements/1.1/"
   xmlns:cc="http://creativecommons.org/ns#"
   xmlns:rdf="http://www.w3.org/1999/02/22-rdf-syntax-ns#"
   xmlns:svg="http://www.w3.org/2000/svg"
   xmlns="http://www.w3.org/2000/svg"
   xmlns:sodipodi="http://sodipodi.sourceforge.net/DTD/sodipodi-0.dtd"
   xmlns:inkscape="http://www.inkscape.org/namespaces/inkscape"
   width="27.413481mm"
   height="25.235308mm"
   viewBox="0 0 27.413481 25.235307"
   version="1.1"
   id="svg1075"
   sodipodi:docname="ley.svg"
   inkscape:version="1.0.1 (3bc2e813f5, 2020-09-07)">
  <defs
     id="defs1069" />
  <sodipodi:namedview
     id="base"
     pagecolor="#ffffff"
     bordercolor="#666666"
     borderopacity="1.0"
     inkscape:pageopacity="0.0"
     inkscape:pageshadow="2"
     inkscape:zoom="0.98994949"
     inkscape:cx="-254.64998"
     inkscape:cy="-183.88007"
     inkscape:document-units="mm"
     inkscape:current-layer="g1681"
     inkscape:document-rotation="0"
     showgrid="false"
     inkscape:window-width="1920"
     inkscape:window-height="1017"
     inkscape:window-x="-8"
     inkscape:window-y="-8"
     inkscape:window-maximized="1" />
  <metadata
     id="metadata1072">
    <rdf:RDF>
      <cc:Work
         rdf:about="">
        <dc:format>image/svg+xml</dc:format>
        <dc:type
           rdf:resource="http://purl.org/dc/dcmitype/StillImage" />
        <dc:title></dc:title>
      </cc:Work>
    </rdf:RDF>
  </metadata>
  <g
     inkscape:label="Capa 1"
     inkscape:groupmode="layer"
     id="layer1"
     transform="translate(-129.1736,-495.30358)">
    <g
       id="g1067"
       transform="matrix(0.26458333,0,0,0.26458333,310.65091,163.78484)">
      <g
         id="g1677">
        <g
           id="g1681"
           transform="matrix(0.4985532,0,0,1.0387072,-383.50352,3.3673297)">
          <path
             class="cls-2"
             d="m -416.39481,1210.9061 a 4.011608,1.9254705 0 0 0 -1.70493,-0.2407 v -5.6897 a 4.011608,1.9254705 0 0 0 -4.01161,-1.9255 h -18.25281 a 4.011608,1.9254705 0 0 0 -4.01161,1.9255 v 5.6897 a 4.011608,1.9254705 0 0 0 -3.79097,1.9255 v 67.3915 a 4.011608,1.9254705 0 0 0 3.4901,1.9255 c 3.4901,3.1385 8.02321,7.3071 9.42728,8.5394 v 2.5031 a 4.011608,1.9254705 0 0 0 8.02321,0 v -2.5127 c 1.30378,-1.2227 6.01742,-5.3913 9.44734,-8.5298 a 4.011608,1.9254705 0 0 0 3.44998,-1.9255 v -64.8114 a 11.453141,5.4972181 0 0 1 7.58194,5.3528 v 20.8432 a 4.01161,1.9254715 0 0 0 8.02322,0 v -20.8432 c 0,-4.9869 -7.04037,-8.6646 -17.67114,-9.6177 z m -23.66848,3.6006 h 17.79148 v 38.5094 h -17.79148 z m 14.04063,-7.6056 v 3.7547 h -10.24966 v -3.7547 z m 2.3869,72.1089 -7.52176,6.7392 c -1.66482,-1.5308 -4.01161,-3.6873 -7.46159,-6.7392 a 3.8712018,1.858079 0 0 0 -1.42412,-0.7317 v -21.4305 h 17.79148 v 21.4498 a 4.011608,1.9254705 0 0 0 -1.4843,0.7124 z"
             id="path8"
             style="fill:#3cb371;fill-opacity:1;stroke-width:1.38963" />
          <path
             class="cls-2"
             d="m -512.27224,1238.2285 h -53.87589 a 4.011608,1.9254705 0 0 1 0,-3.8509 h 53.87589 a 4.011608,1.9254705 0 0 1 0,3.8509 z"
             id="path10"
             style="fill:#3cb371;fill-opacity:1;stroke-width:1.38963" />
          <path
             class="cls-2"
             d="m -546.65172,1229.5061 h -19.49641 a 4.011608,1.9254705 0 1 1 0,-3.8509 h 19.49641 a 4.011608,1.9254705 0 0 1 0,3.8509 z"
             id="path12"
             style="fill:#3cb371;fill-opacity:1;stroke-width:1.38963" />
          <path
             class="cls-2"
             d="m -546.65172,1271.7895 h -19.49641 a 4.011608,1.9254705 0 0 1 0,-3.8509 h 19.49641 a 4.011608,1.9254705 0 0 1 0,3.8509 z"
             id="path14"
             style="fill:#3cb371;fill-opacity:1;stroke-width:1.38963" />
          <path
             class="cls-2"
             d="m -520.09487,1246.6813 h -46.1335 a 4.011608,1.9254705 0 0 1 0,-3.8509 h 46.1335 a 4.011608,1.9254705 0 0 1 0,3.8509 z"
             id="path16"
             style="fill:#3cb371;fill-opacity:1;stroke-width:1.38963" />
          <path
             class="cls-2"
             d="m -512.27224,1255.0186 h -53.87589 a 4.011608,1.9254705 0 1 1 0,-3.8509 h 53.87589 a 4.011608,1.9254705 0 0 1 0,3.8509 z"
             id="path18"
             style="fill:#3cb371;fill-opacity:1;stroke-width:1.38963" />
          <path
             class="cls-2"
             d="m -458.6571,1227.9561 a 4.011608,1.9254705 0 0 0 -1.58458,-1.5307 l -47.1364,-22.6243 a 5.0746842,2.4357201 0 0 0 -0.88255,-0.2888 l -0.2407,-0.058 a 3.3296347,1.5981405 0 0 0 -0.94272,-0.1637 v 0 a 3.1089962,1.4922396 0 0 0 -0.74215,0 h -92.34722 a 4.011608,1.9254705 0 0 0 -4.01161,1.9255 v 87.5031 a 4.011608,1.9254705 0 0 0 4.01161,1.9254 h 139.80454 a 4.011608,1.9254705 0 0 0 4.01161,-1.9254 v -64.5034 a 4.974394,2.3875834 0 0 0 0.0602,-0.2599 z m -13.73975,-1.9254 h -33.85798 v -16.2221 l 0.14041,0.077 z m -126.12496,64.7151 v -83.6521 h 84.24377 v 20.8624 a 4.011608,1.9254705 0 0 0 4.01161,1.9255 h 43.52594 v 60.8642 z"
             id="path20"
             style="fill:#3cb371;fill-opacity:1;stroke-width:1.38963" />
        </g>
      </g>
    </g>
  </g>
</svg>
