<?xml version="1.0" encoding="UTF-8" standalone="no"?>
<svg
   xmlns:dc="http://purl.org/dc/elements/1.1/"
   xmlns:cc="http://creativecommons.org/ns#"
   xmlns:rdf="http://www.w3.org/1999/02/22-rdf-syntax-ns#"
   xmlns:svg="http://www.w3.org/2000/svg"
   xmlns="http://www.w3.org/2000/svg"
   xmlns:sodipodi="http://sodipodi.sourceforge.net/DTD/sodipodi-0.dtd"
   xmlns:inkscape="http://www.inkscape.org/namespaces/inkscape"
   width="24.001482mm"
   height="24.003361mm"
   viewBox="0 0 24.001482 24.00336"
   version="1.1"
   id="svg1075"
   sodipodi:docname="news.svg"
   inkscape:version="1.0.1 (3bc2e813f5, 2020-09-07)">
  <defs
     id="defs1069" />
  <sodipodi:namedview
     id="base"
     pagecolor="#ffffff"
     bordercolor="#666666"
     borderopacity="1.0"
     inkscape:pageopacity="0.0"
     inkscape:pageshadow="2"
     inkscape:zoom="1.4"
     inkscape:cx="-214.27135"
     inkscape:cy="-28.591247"
     inkscape:document-units="mm"
     inkscape:current-layer="g1681"
     inkscape:document-rotation="0"
     showgrid="false"
     inkscape:window-width="1920"
     inkscape:window-height="1017"
     inkscape:window-x="-8"
     inkscape:window-y="-8"
     inkscape:window-maximized="1" />
  <metadata
     id="metadata1072">
    <rdf:RDF>
      <cc:Work
         rdf:about="">
        <dc:format>image/svg+xml</dc:format>
        <dc:type
           rdf:resource="http://purl.org/dc/dcmitype/StillImage" />
        <dc:title></dc:title>
      </cc:Work>
    </rdf:RDF>
  </metadata>
  <g
     inkscape:label="Capa 1"
     inkscape:groupmode="layer"
     id="layer1"
     transform="translate(-129.60448,-342.21208)">
    <g
       id="g1067"
       transform="matrix(0.26458333,0,0,0.26458333,310.65091,163.78484)">
      <g
         id="g1677">
        <g
           id="g1681"
           transform="matrix(0.4985532,0,0,1.0387072,-383.50352,3.3673297)">
          <ellipse
             class="cls-3"
             cx="-530.60602"
             cy="680.23822"
             id="circle384"
             style="fill:#ffffff;stroke:#3cb371;stroke-width:2.8331;stroke-opacity:1"
             rx="68.167534"
             ry="31.398848" />
          <path
             class="cls-2"
             d="m -530.60592,713.07912 a 71.256573,32.821698 0 1 1 50.38469,-9.61386 70.964365,32.687105 0 0 1 -50.38469,9.61386 z m 0,-62.79768 a 65.078499,29.975997 0 1 0 65.03674,29.97598 65.120243,29.995226 0 0 0 -65.03674,-29.97598 z"
             id="path386"
             style="fill:#3cb371;fill-opacity:1;stroke:#3cb371;stroke-width:2.8331;stroke-opacity:1" />
          <path
             class="cls-3"
             d="M -530.60592,648.85856 Z"
             id="path388"
             style="fill:#ffffff;stroke:#3cb371;stroke-width:2.8331;stroke-opacity:1" />
          <rect
             class="cls-2"
             x="-533.69501"
             y="648.83936"
             width="6.2198181"
             height="62.797695"
             id="rect390"
             style="fill:#3cb371;fill-opacity:1;stroke:#3cb371;stroke-width:2.8331;stroke-opacity:1" />
          <path
             class="cls-3"
             d="M -598.77346,680.25742 Z"
             id="path392"
             style="fill:#ffffff;stroke:#3cb371;stroke-width:2.8331;stroke-opacity:1" />
          <rect
             class="cls-2"
             x="-598.7735"
             y="678.81537"
             width="136.33507"
             height="2.8649287"
             id="rect394"
             style="fill:#3cb371;fill-opacity:1;stroke:#3cb371;stroke-width:2.8331;stroke-opacity:1" />
          <path
             class="cls-2"
             d="m -543.75522,712.21387 a 115.67191,53.279979 0 0 1 -26.79948,-24.66916 93.380758,43.012385 0 0 1 3.00555,-20.55443 111.20533,51.222615 0 0 1 23.96093,-19.2277 l 4.42482,1.92279 -2.21241,-0.99985 2.21241,0.99985 a 106.27957,48.953746 0 0 0 -22.49988,18.09328 86.576526,39.878268 0 0 0 -2.71334,19.2277 109.32687,50.35737 0 0 0 25.3802,23.26551 z"
             id="path396"
             style="fill:#3cb371;fill-opacity:1;stroke:#3cb371;stroke-width:2.8331;stroke-opacity:1" />
          <path
             class="cls-2"
             d="m -516.62178,712.21387 -4.71704,-1.92277 a 109.32687,50.35737 0 0 0 25.38021,-23.26552 86.576526,39.878268 0 0 0 -2.71335,-19.22772 106.90573,49.242162 0 0 0 -22.49989,-18.09328 l 4.3831,-1.92277 a 110.32872,50.818834 0 0 1 24.00265,19.22772 92.879831,42.781652 0 0 1 2.96381,20.55441 114.87879,52.914653 0 0 1 -26.79949,24.64993 z"
             id="path398"
             style="fill:#3cb371;fill-opacity:1;stroke:#3cb371;stroke-width:2.8331;stroke-opacity:1" />
          <path
             class="cls-2"
             d="m -528.47699,666.54808 a 115.79715,53.337663 0 0 1 -21.58152,-0.94216 118.71921,54.683603 0 0 1 -32.93583,-5.13383 l 3.0473,-2.49958 -1.54453,1.24978 1.54453,-1.24978 a 112.70811,51.914812 0 0 0 31.22434,4.82614 106.82224,49.203705 0 0 0 31.64174,0.57683 92.253676,42.493237 0 0 0 35.77439,-5.40297 l 3.08905,2.49958 a 99.475344,45.819629 0 0 1 -38.32076,5.76834 102.98182,47.434757 0 0 1 -11.93871,0.30765 z"
             id="path400"
             style="fill:#3cb371;fill-opacity:1;stroke:#3cb371;stroke-width:2.8331;stroke-opacity:1" />
          <path
             class="cls-2"
             d="m -481.26482,702.84998 a 114.00217,52.510872 0 0 0 -31.26607,-4.84539 106.4883,49.049884 0 0 0 -31.60002,-0.57683 92.921575,42.800879 0 0 0 -35.81613,5.40299 l -3.08903,-2.48037 a 98.306519,45.281254 0 0 1 38.32076,-5.7683 111.03837,51.145705 0 0 1 33.39499,0.63451 117.25818,54.010635 0 0 1 32.93581,5.11456 l -3.00553,2.4996 1.50275,-1.2498 z"
             id="path402"
             style="fill:#3cb371;fill-opacity:1;stroke:#3cb371;stroke-width:2.8331;stroke-opacity:1" />
          <ellipse
             class="cls-3"
             cx="-432.25784"
             cy="700.81183"
             rx="6.4285364"
             ry="5.0953431"
             id="ellipse404"
             style="fill:#ffffff;stroke:#3cb371;stroke-width:2.8331;stroke-opacity:1" />
          <path
             class="cls-2"
             d="m -432.29941,707.34927 c -5.42668,0 -9.55932,-2.80726 -9.55932,-6.53742 0,-3.73018 4.17437,-6.53742 9.55932,-6.53742 5.38494,0 9.55932,2.80724 9.55932,6.53742 0,3.73016 -4.0909,6.53742 -9.55932,6.53742 z m 0,-10.20993 c -1.16881,0 -3.3395,1.40363 -3.3395,3.67251 0,2.26884 2.17069,3.65324 3.3395,3.65324 1.16883,0 3.33949,-1.3844 3.33949,-3.65324 0,-2.26888 -2.17066,-3.67251 -3.33949,-3.67251 z"
             id="path406"
             style="fill:#3cb371;fill-opacity:1;stroke:#3cb371;stroke-width:2.8331;stroke-opacity:1" />
          <path
             class="cls-3"
             d="m -491.99298,696.04336 v 0 l -5.80235,4.76849 h -2.62987 l 1.29406,1.07675 -1.29406,1.07675 h 2.62987 l 5.80235,4.7877 v 0 c 20.45445,0 31.43306,3.42253 46.83649,9.61386 l 11.60477,4.69154 v -40.37819 l -11.60477,4.7108 c -15.52867,6.21056 -26.38204,9.6523 -46.83649,9.6523 z"
             id="path408"
             style="fill:#ffffff;stroke:#3cb371;stroke-width:2.8331;stroke-opacity:1" />
          <path
             class="cls-2"
             d="m -433.55172,723.539 a 3.2142684,1.4805336 0 0 1 -2.04543,-0.36534 l -11.60478,-4.71077 c -15.90435,-6.44131 -26.13158,-9.30622 -44.79105,-9.30622 a 3.1307809,1.4420781 0 0 1 -2.71333,-0.73066 l -4.92576,-4.03782 h -0.79313 a 3.1307809,1.4420781 0 0 1 -2.71334,-2.13427 l 0.45916,-0.38455 -0.45916,-0.38457 a 3.1307809,1.4420781 0 0 1 2.71334,-2.13427 h 0.79313 l 4.92576,-4.03783 a 3.1307809,1.4420781 0 0 1 2.71333,-0.73062 c 18.65947,0 28.8867,-2.86495 44.79105,-9.287 l 11.60478,-4.7108 a 3.1307809,1.4420781 0 0 1 3.33948,-0.23073 3.1307809,1.4420781 0 0 1 1.83672,1.30748 v 40.37819 a 3.1307809,1.4420781 0 0 1 -1.83672,1.30748 3.4229871,1.5766721 0 0 1 -1.29405,0.1923 z m -56.60452,-17.30494 c 21.24757,0.23072 32.93581,4.30701 47.0452,10.01762 l 6.47027,2.59574 v -33.99458 l -6.47027,2.61497 c -14.10939,5.76831 -25.79763,9.76768 -47.0452,9.99841 l -4.92575,4.03781 a 2.6715998,1.2305734 0 0 1 -0.66791,0.38457 3.256012,1.4997613 0 0 1 0.66791,0.38455 z"
             id="path410"
             style="fill:#3cb371;fill-opacity:1;stroke:#3cb371;stroke-width:2.8331;stroke-opacity:1" />
          <rect
             class="cls-1"
             x="-538.87115"
             y="693.00537"
             width="49.716801"
             height="17.747173"
             id="rect412"
             style="fill:#ffffff;fill-opacity:1;stroke:#3cb371;stroke-width:2.8331;stroke-opacity:1" />
          <path
             class="cls-2"
             d="m -489.15439,712.19464 h -49.71681 a 3.1307809,1.4420781 0 0 1 -3.13077,-1.44207 v -17.72794 a 3.1725247,1.4613058 0 0 1 3.13077,-1.44209 h 49.71681 a 3.1725247,1.4613058 0 0 1 3.13077,1.44209 v 17.74717 a 3.1307809,1.4420781 0 0 1 -3.13077,1.42284 z m -46.66951,-2.86493 h 43.53873 v -14.88224 h -43.53873 z"
             id="path414"
             style="fill:#3cb371;fill-opacity:1;stroke:#3cb371;stroke-width:2.8331;stroke-opacity:1" />
          <polygon
             class="cls-3"
             points="346.73,251.21 346.73,261.48 354.5,261.48 351.68,251.21 "
             id="polygon416"
             style="fill:#ffffff;stroke:#3cb371;stroke-opacity:1"
             transform="matrix(4.1743744,0,0,1.9227709,-1973.8542,227.7333)" />
          <path
             class="cls-2"
             d="m -494.08015,731.92227 h -32.47662 a 3.1307809,1.4420781 0 0 1 -3.08905,-1.44209 V 710.7718 a 3.0890372,1.4228504 0 0 1 3.08905,-1.42286 h 20.66315 a 3.0890372,1.4228504 0 0 1 3.00553,1.05754 l 11.77174,19.72761 a 3.0055496,1.384395 0 0 1 -0.50092,1.24981 3.0472933,1.4036227 0 0 1 -2.46288,0.53837 z m -29.22063,-2.86493 h 25.04626 l -10.06025,-16.88193 h -14.98601 z"
             id="path418"
             style="fill:#3cb371;fill-opacity:1;stroke:#3cb371;stroke-width:2.8331;stroke-opacity:1" />
        </g>
      </g>
    </g>
  </g>
</svg>
