<?xml version="1.0" encoding="UTF-8" standalone="no"?>
<svg
   xmlns:dc="http://purl.org/dc/elements/1.1/"
   xmlns:cc="http://creativecommons.org/ns#"
   xmlns:rdf="http://www.w3.org/1999/02/22-rdf-syntax-ns#"
   xmlns:svg="http://www.w3.org/2000/svg"
   xmlns="http://www.w3.org/2000/svg"
   xmlns:sodipodi="http://sodipodi.sourceforge.net/DTD/sodipodi-0.dtd"
   xmlns:inkscape="http://www.inkscape.org/namespaces/inkscape"
   width="23.99992mm"
   height="24mm"
   viewBox="0 0 23.99992 24"
   version="1.1"
   id="svg1075"
   sodipodi:docname="post.svg"
   inkscape:version="1.0.1 (3bc2e813f5, 2020-09-07)">
  <defs
     id="defs1069" />
  <sodipodi:namedview
     id="base"
     pagecolor="#ffffff"
     bordercolor="#666666"
     borderopacity="1.0"
     inkscape:pageopacity="0.0"
     inkscape:pageshadow="2"
     inkscape:zoom="0.49497475"
     inkscape:cx="-376.69346"
     inkscape:cy="133.62426"
     inkscape:document-units="mm"
     inkscape:current-layer="g1681"
     inkscape:document-rotation="0"
     showgrid="false"
     inkscape:window-width="1920"
     inkscape:window-height="1017"
     inkscape:window-x="-8"
     inkscape:window-y="-8"
     inkscape:window-maximized="1" />
  <metadata
     id="metadata1072">
    <rdf:RDF>
      <cc:Work
         rdf:about="">
        <dc:format>image/svg+xml</dc:format>
        <dc:type
           rdf:resource="http://purl.org/dc/dcmitype/StillImage" />
        <dc:title></dc:title>
      </cc:Work>
    </rdf:RDF>
  </metadata>
  <g
     inkscape:label="Capa 1"
     inkscape:groupmode="layer"
     id="layer1"
     transform="translate(-89.337849,-151.36209)">
    <g
       id="g1067"
       transform="matrix(0.26458333,0,0,0.26458333,310.65091,163.78484)">
      <g
         id="g1677">
        <g
           id="g1681"
           transform="matrix(0.4985532,0,0,1.0387072,-383.50352,3.3673297)">
          <path
             class="cls-212"
             d="m -847.1056,15.541299 a 4.1007576,1.8479755 0 0 1 -2.05037,-0.267468 58.759538,26.479545 0 0 1 34.80255,-48.630948 59.353068,26.747015 0 0 1 55.57605,26.7470198 58.543709,26.382281 0 0 1 -26.97867,21.8839282 3.8466319,1.7334557 0 0 1 -4.15471,-2.917876 51.043639,23.002432 0 1 0 -55.03662,0 3.7770134,1.7020827 0 0 1 1.13333,2.431559 3.6690987,1.6534517 0 0 1 -3.29156,0.753785 z"
             id="path4002"
             style="fill:#3cb371;stroke-width:3.62217;fill-opacity:1" />
          <path
             class="cls-212"
             d="m -817.42899,-38.998291 a 3.8309709,1.7263982 0 0 1 -3.88485,-1.726419 v -5.762759 a 3.8849281,1.7507136 0 1 1 7.71582,0 v 5.762759 a 3.8309709,1.7263982 0 0 1 -3.83097,1.726419 z"
             id="path4004"
             style="fill:#3cb371;stroke-width:3.62217;fill-opacity:1" />
          <path
             class="cls-212"
             d="m -848.34653,-36.080441 a 3.8849281,1.7507136 0 0 1 -3.5611,-1.045575 l -5.39572,-5.276442 a 3.8309709,1.7263982 0 0 1 1.94222,-2.285651 3.8849281,1.7507136 0 0 1 5.39572,0.875345 l 5.396,5.276467 a 3.8309709,1.7263982 0 0 1 -1.9425,2.285652 3.5072267,1.5805054 0 0 1 -1.83462,0.170229 z"
             id="path4006"
             style="fill:#3cb371;stroke-width:3.62217;fill-opacity:1" />
          <path
             class="cls-212"
             d="m -873.86847,-27.667299 a 3.7230562,1.6777672 0 0 1 -2.53592,-0.437673 l -9.28071,-3.744576 a 3.8849281,1.7507136 0 0 1 -0.26981,-2.431559 3.8309709,1.7263982 0 0 1 5.39572,0 l 9.17284,3.598694 a 3.7770134,1.7020827 0 0 1 0,2.431559 3.7230562,1.6777672 0 0 1 -2.48212,0.583555 z"
             id="path4008"
             style="fill:#3cb371;stroke-width:3.62217;fill-opacity:1" />
          <path
             class="cls-212"
             d="m -889.62389,-15.339351 a 5.018032,2.2613384 0 0 1 -1.18712,0 l -11.43894,-1.677774 a 3.8563648,1.7378418 0 0 1 2.37424,-3.306904 l 11.43895,1.677774 a 3.8849281,1.7507136 0 0 1 2.48185,2.188388 3.9388854,1.7750291 0 0 1 -3.66898,1.118516 z"
             id="path4010"
             style="fill:#3cb371;stroke-width:3.62217;fill-opacity:1" />
          <path
             class="cls-212"
             d="m -904.51606,-0.70143015 a 3.8356392,1.7285019 0 0 1 -0.37768,-3.45281145 l 11.9245,-0.5349358 a 3.8522853,1.7360035 0 0 1 0.80943,3.4527861 l -11.65495,0.53496115 z"
             id="path4012"
             style="fill:#3cb371;stroke-width:3.62217;fill-opacity:1" />
          <path
             class="cls-212"
             d="m -892.96924,14.811836 a 3.8309709,1.7263982 0 0 1 -1.9425,-3.233963 l 9.76627,-2.4315584 a 3.8849281,1.7507136 0 0 1 3.88498,3.0151134 l -9.82033,2.431559 a 3.4532695,1.5561899 0 0 1 -1.88842,0.218723 z"
             id="path4014"
             style="fill:#3cb371;stroke-width:3.62217;fill-opacity:1" />
          <path
             class="cls-212"
             d="m -741.88874,14.787514 a 4.3705442,1.9695528 0 0 1 -1.94247,-0.243222 l -9.92812,-2.577416 a 3.8451066,1.7327684 0 1 1 3.8849,-2.9908164 l 9.76629,2.5774414 a 3.8309709,1.7263982 0 0 1 -1.7806,3.233962 z"
             id="path4016"
             style="fill:#3cb371;stroke-width:3.62217;fill-opacity:1" />
          <path
             class="cls-212"
             d="m -730.44977,-0.75007446 h -0.37771 l -11.65477,-0.53493584 a 3.842464,1.7315775 0 0 1 0.59351,-3.4528114 l 11.65479,0.5349611 a 3.8356228,1.7284945 0 0 1 -0.37771,3.45278614 z"
             id="path4018"
             style="fill:#3cb371;stroke-width:3.62217;fill-opacity:1" />
          <path
             class="cls-212"
             d="m -745.44992,-15.412292 a 3.7770134,1.7020827 0 0 1 -3.61515,-1.191458 3.8309709,1.7263982 0 0 1 2.4281,-2.188413 l 11.43895,-1.677748 a 3.8563454,1.7378331 0 1 1 2.37411,3.306903 l -11.38498,1.677749 a 4.9101176,2.2127075 0 0 1 -1.24103,0.07299 z"
             id="path4020"
             style="fill:#3cb371;stroke-width:3.62217;fill-opacity:1" />
          <path
             class="cls-212"
             d="m -761.20544,-27.691621 a 3.7230562,1.6777672 0 0 1 -2.85975,-0.583555 3.8309709,1.7263982 0 0 1 0,-2.431559 l 9.06483,-3.671635 a 3.8401744,1.7305457 0 0 1 5.12593,2.577441 l -9.06483,3.671635 a 3.7770134,1.7020827 0 0 1 -2.26618,0.437673 z"
             id="path4022"
             style="fill:#3cb371;stroke-width:3.62217;fill-opacity:1" />
          <path
             class="cls-212"
             d="m -786.72728,-36.080441 a 4.2626295,1.9209219 0 0 1 -1.56476,0 3.8849281,1.7507136 0 0 1 -2.15829,-2.431559 l 5.39573,-5.154882 a 3.8404685,1.7306783 0 0 1 7.01446,1.410306 l -5.072,5.179205 a 3.8849281,1.7507136 0 0 1 -3.61514,0.99693 z"
             id="path4024"
             style="fill:#3cb371;stroke-width:3.62217;fill-opacity:1" />
          <path
             class="cls-212"
             d="m -789.64097,15.735825 h -55.68408 a 3.8849281,1.7507136 0 0 1 0,-3.477133 h 55.68408 a 3.8849281,1.7507136 0 1 1 0,3.477133 z"
             id="path4026"
             style="fill:#3cb371;stroke-width:3.62217;fill-opacity:1" />
          <path
             class="cls-212"
             d="m -790.45033,22.95751 h -53.95741 a 3.8309883,1.726406 0 1 1 0,-3.452812 h 53.95741 a 3.8309883,1.726406 0 0 1 0,3.452812 z"
             id="path4028"
             style="fill:#3cb371;stroke-width:3.62217;fill-opacity:1" />
          <path
             class="cls-212"
             d="m -794.22736,31.00592 h -46.45734 a 3.8849281,1.7507136 0 1 1 0,-3.477108 h 46.45734 a 3.8849281,1.7507136 0 0 1 0,3.477108 z"
             id="path4030"
             style="fill:#3cb371;stroke-width:3.62217;fill-opacity:1" />
          <path
             class="cls-212"
             d="m -817.42899,38.884126 a 26.978667,12.157733 0 0 1 -19.74841,-3.914781 l -7.66183,-3.744576 a 16.187201,7.2946402 0 0 1 -4.26267,-4.863092 v -12.35227 a 3.8309709,1.7263982 0 0 1 3.83092,-1.750715 h 55.63001 a 3.8849281,1.7507136 0 0 1 3.88493,1.750715 v 12.279329 a 16.187201,7.2946402 0 0 1 -4.3166,4.863092 l -7.66194,3.744576 a 26.978667,12.157733 0 0 1 -19.69441,3.987722 z m -24.01108,-23.148301 v 10.552911 a 8.3094296,3.7445821 0 0 0 2.42805,2.577441 l 7.6621,3.768898 a 19.208811,8.6563062 0 0 0 28.16566,0 l 7.33818,-3.768898 a 8.525259,3.8418439 0 0 0 2.21226,-2.577441 V 15.735825 Z"
             id="path4032"
             style="fill:#3cb371;stroke-width:3.62217;fill-opacity:1" />
        </g>
      </g>
    </g>
  </g>
</svg>
