<?xml version="1.0" encoding="UTF-8" standalone="no"?>
<svg
   xmlns:dc="http://purl.org/dc/elements/1.1/"
   xmlns:cc="http://creativecommons.org/ns#"
   xmlns:rdf="http://www.w3.org/1999/02/22-rdf-syntax-ns#"
   xmlns:svg="http://www.w3.org/2000/svg"
   xmlns="http://www.w3.org/2000/svg"
   xmlns:sodipodi="http://sodipodi.sourceforge.net/DTD/sodipodi-0.dtd"
   xmlns:inkscape="http://www.inkscape.org/namespaces/inkscape"
   width="31.347834mm"
   height="23.55608mm"
   viewBox="0 0 31.347834 23.556079"
   version="1.1"
   id="svg1075"
   sodipodi:docname="pqr.svg"
   inkscape:version="1.0.1 (3bc2e813f5, 2020-09-07)">
  <defs
     id="defs1069" />
  <sodipodi:namedview
     id="base"
     pagecolor="#ffffff"
     bordercolor="#666666"
     borderopacity="1.0"
     inkscape:pageopacity="0.0"
     inkscape:pageshadow="2"
     inkscape:zoom="0.98994949"
     inkscape:cx="-239.4649"
     inkscape:cy="-234.52286"
     inkscape:document-units="mm"
     inkscape:current-layer="g1681"
     inkscape:document-rotation="0"
     showgrid="false"
     inkscape:window-width="1920"
     inkscape:window-height="1017"
     inkscape:window-x="-8"
     inkscape:window-y="-8"
     inkscape:window-maximized="1" />
  <metadata
     id="metadata1072">
    <rdf:RDF>
      <cc:Work
         rdf:about="">
        <dc:format>image/svg+xml</dc:format>
        <dc:type
           rdf:resource="http://purl.org/dc/dcmitype/StillImage" />
        <dc:title></dc:title>
      </cc:Work>
    </rdf:RDF>
  </metadata>
  <g
     inkscape:label="Capa 1"
     inkscape:groupmode="layer"
     id="layer1"
     transform="translate(-125.15588,-380.41344)">
    <g
       id="g1067"
       transform="matrix(0.26458333,0,0,0.26458333,310.65091,163.78484)">
      <g
         id="g1677">
        <g
           id="g1681"
           transform="matrix(0.4985532,0,0,1.0387072,-383.50352,3.3673297)">
          <path
             class="cls-2"
             d="m -533.98524,847.0014 a 4.011608,1.9254705 0 0 1 -2.70784,-0.51025 L -565.1755,833.8023 a 9.5877432,4.6018744 0 0 1 -0.90261,-6.23852 l 2.38691,-1.39597 a 9.5877432,4.6018744 0 0 1 13.73976,-0.53913 l 15.1037,6.36368 34.76058,-19.05253 a 9.6078013,4.6115017 0 0 1 13.59936,-0.40435 l 2.66772,1.14566 a 9.6078013,4.6115017 0 0 1 0.82238,6.45995 l -47.95878,26.25379 a 4.011608,1.9254705 0 0 1 -2.80812,0.65466 z m -22.28449,-18.71557 a 1.5645271,0.75093348 0 0 0 -1.22354,0.27919 l -2.3869,1.38634 a 1.5645271,0.75093348 0 0 0 0.16046,1.03013 l 25.45365,11.34102 45.23089,-24.76155 a 1.5845852,0.76056083 0 0 0 -0.14041,-1.05901 l -2.68778,-1.14565 a 1.6447593,0.78944289 0 0 0 -1.04302,-0.19255 1.6247013,0.77981553 0 0 0 -1.20348,0.25994 l -37.38819,20.50626 a 4.011608,1.9254705 0 0 1 -5.65636,0.18292 l -18.05224,-7.64412 a 1.5244111,0.73167877 0 0 0 -1.02296,-0.18292 z"
             id="path96"
             style="fill:#3cb371;fill-opacity:1;stroke-width:1.38963" />
          <path
             class="cls-2"
             d="m -523.35448,870.71357 c -62.66132,0 -113.64886,-19.2547 -113.64886,-42.86097 0,-23.60627 50.98754,-42.85135 113.64886,-42.85135 62.66132,0 113.72909,19.22583 113.72909,42.85135 a 74.575793,35.794496 0 0 1 -13.79994,20.48701 l 24.06965,21.07427 -66.43223,-4.56337 a 138.52083,66.486495 0 0 1 -57.56657,5.86306 z m 0,-81.83249 c -58.16832,0 -105.62564,17.4929 -105.62564,39.0004 0,21.50751 47.37709,39.01003 105.62564,39.01003 a 129.79558,62.298597 0 0 0 55.17967,-5.77641 l 1.08313,-0.24068 52.95323,3.63914 -18.81444,-16.4724 1.52441,-0.96274 a 66.953738,32.136102 0 0 0 13.77987,-19.22582 c 0,-21.469 -47.43726,-39.0004 -105.70587,-39.0004 z"
             id="path98"
             style="fill:#3cb371;fill-opacity:1;stroke-width:1.38963" />
        </g>
      </g>
    </g>
  </g>
</svg>
