<?xml version="1.0" encoding="UTF-8" standalone="no"?>
<svg
   xmlns:dc="http://purl.org/dc/elements/1.1/"
   xmlns:cc="http://creativecommons.org/ns#"
   xmlns:rdf="http://www.w3.org/1999/02/22-rdf-syntax-ns#"
   xmlns:svg="http://www.w3.org/2000/svg"
   xmlns="http://www.w3.org/2000/svg"
   xmlns:sodipodi="http://sodipodi.sourceforge.net/DTD/sodipodi-0.dtd"
   xmlns:inkscape="http://www.inkscape.org/namespaces/inkscape"
   width="23.999998mm"
   height="23.999966mm"
   viewBox="0 0 23.999998 23.999965"
   version="1.1"
   id="svg1075"
   sodipodi:docname="reseach.svg"
   inkscape:version="1.0.1 (3bc2e813f5, 2020-09-07)">
  <defs
     id="defs1069" />
  <sodipodi:namedview
     id="base"
     pagecolor="#ffffff"
     bordercolor="#666666"
     borderopacity="1.0"
     inkscape:pageopacity="0.0"
     inkscape:pageshadow="2"
     inkscape:zoom="0.98994949"
     inkscape:cx="-273.11995"
     inkscape:cy="-191.16272"
     inkscape:document-units="mm"
     inkscape:current-layer="g1681"
     inkscape:document-rotation="0"
     showgrid="false"
     inkscape:window-width="1920"
     inkscape:window-height="1017"
     inkscape:window-x="-8"
     inkscape:window-y="-8"
     inkscape:window-maximized="1" />
  <metadata
     id="metadata1072">
    <rdf:RDF>
      <cc:Work
         rdf:about="">
        <dc:format>image/svg+xml</dc:format>
        <dc:type
           rdf:resource="http://purl.org/dc/dcmitype/StillImage" />
        <dc:title></dc:title>
      </cc:Work>
    </rdf:RDF>
  </metadata>
  <g
     inkscape:label="Capa 1"
     inkscape:groupmode="layer"
     id="layer1"
     transform="translate(-134.06045,-422.39498)">
    <g
       id="g1067"
       transform="matrix(0.26458333,0,0,0.26458333,310.65091,163.78484)">
      <g
         id="g1677">
        <g
           id="g1681"
           transform="matrix(0.4985532,0,0,1.0387072,-383.50352,3.3673297)">
          <path
             class="cls-2"
             d="m -406.93895,977.02067 h -45.86366 a 3.4188346,1.842352 0 1 1 0,-3.6847 h 45.86366 a 3.4188346,1.842352 0 1 1 0,3.6847 z"
             id="path74"
             style="fill:#3cb371;fill-opacity:1;stroke-width:1.25487" />
          <path
             class="cls-2"
             d="m -406.93895,1009.1421 h -16.59844 a 3.4189237,1.8424 0 0 1 0,-3.6848 h 16.59844 a 3.4189237,1.8424 0 0 1 0,3.6848 z"
             id="path76"
             style="fill:#3cb371;fill-opacity:1;stroke-width:1.25487" />
          <path
             class="cls-2"
             d="m -407.34921,985.10859 h -39.3166 a 3.4188346,1.842352 0 1 1 0,-3.6847 h 39.3166 a 3.4188346,1.842352 0 1 1 0,3.6847 z"
             id="path78"
             style="fill:#3cb371;fill-opacity:1;stroke-width:1.25487" />
          <path
             class="cls-2"
             d="m -406.93895,993.08598 h -45.86366 a 3.4188346,1.842352 0 1 1 0,-3.6847 h 45.86366 a 3.4188346,1.842352 0 1 1 0,3.6847 z"
             id="path80"
             style="fill:#3cb371;fill-opacity:1;stroke-width:1.25487" />
          <path
             class="cls-2"
             d="m -387.55416,961.36068 a 3.4188346,1.842352 0 0 0 -1.35044,-1.46467 l -40.1713,-21.63842 v 0 a 3.4188346,1.842352 0 0 0 -0.70086,-0.26714 l -0.20514,-0.0645 a 2.7692561,1.4923051 0 0 0 -0.82051,-0.1566 v 0 a 2.564126,1.3817639 0 0 0 -0.63249,0 h -78.6332 a 3.4188346,1.842352 0 0 0 -3.41884,1.84236 v 17.88923 c 1.28207,-0.0553 2.58123,-0.0921 3.89748,-0.0921 0.99146,0 1.96583,0 2.9402,0.0553 V 941.3896 h 71.79553 v 19.96188 a 3.4188346,1.842352 0 0 0 3.41883,1.84235 h 37.06016 v 58.24597 h -112.3429 v -16.5811 c -0.97437,0 -1.94874,0.064 -2.94019,0.064 -1.31626,0 -2.61541,0 -3.89748,-0.1014 v 18.4236 a 3.4188346,1.842352 0 0 0 3.41884,1.8422 h 119.11219 a 3.4188346,1.842352 0 0 0 3.41884,-1.8422 v -61.58991 a 3.8120007,2.0542224 0 0 0 0.0513,-0.29477 z m -40.51319,-1.84235 v -15.52182 l 28.80369,15.53103 z"
             id="path82"
             style="fill:#3cb371;fill-opacity:1;stroke-width:1.25487" />
          <path
             class="cls-2"
             d="m -557.21383,1010.4778 a 6.5470684,3.5281039 0 0 1 -4.59833,-1.041 l -5.76073,-3.1135 a 6.5983509,3.5557392 0 0 1 0,-5.0204 l 20.513,-10.787 a 40.83798,22.006894 0 0 1 -3.98294,-9.30388 39.538823,21.3068 0 0 1 36.20546,-21.35286 36.068706,19.436812 0 0 1 6.35903,0 39.761047,21.426552 0 0 1 -0.10257,42.76104 35.111433,18.920955 0 0 1 -6.25646,0 39.69267,21.389706 0 0 1 -18.18821,-3.40838 h -0.15384 l -19.3506,10.31718 a 6.51288,3.5096804 0 0 1 -4.68381,0.9488 z m -5.41885,-6.6694 5.41885,2.9847 23.41902,-12.49117 2.39319,1.07778 0.49572,0.21187 c 0,0 0.23932,0.0645 0.56412,0.17502 h 0.10256 l 0.54701,0.20266 a 32.837907,17.69579 0 0 0 15.38476,2.95695 30.171216,16.258756 0 0 0 5.12825,0 32.923378,17.741848 0 0 0 0,-35.40998 26.154086,14.093992 0 0 0 -5.12825,0 32.718248,17.631308 0 0 0 -29.98318,17.67737 34.188346,18.42352 0 0 0 3.82909,8.29059 c 0.15385,0.14738 0.34189,0.34083 0.42736,0.40531 l 1.40172,1.2528 -1.93164,1.03171 z"
             id="path84"
             style="fill:#3cb371;fill-opacity:1;stroke-width:1.25487" />
        </g>
      </g>
    </g>
  </g>
</svg>
